<?xml version="1.0" standalone="no"?>
<!DOCTYPE svg PUBLIC "-//W3C//DTD SVG 1.1//EN" "http://www.w3.org/Graphics/SVG/1.1/DTD/svg11.dtd" >
<!--
2013-9-30: Created.
-->
<svg>
<metadata>
Created by iconfont
</metadata>
<defs>

<font id="iconfont" horiz-adv-x="1024" >
  <font-face
    font-family="iconfont"
    font-weight="500"
    font-stretch="normal"
    units-per-em="1024"
    ascent="896"
    descent="-128"
  />
    <missing-glyph />
    
    <glyph glyph-name="chaxunjidongchexinxi" unicode="&#58893;" d="M699.918842 149.421892a279.96679 279.96679 0 0 0 279.966791 279.966791 272.267704 272.267704 0 0 0 82.123592-12.3652 133.450837 133.450837 0 0 1-48.994189 59.026331 66.258807 66.258807 0 0 1-5.599335 132.517615H933.224501l-48.527577 187.811055a88.422845 88.422845 0 0 1-63.692445 63.225833 1129.432694 1129.432694 0 0 1-568.799196 0 88.422845 88.422845 0 0 1-63.692444-63.225833L139.985262 607.867512H88.891322a66.492113 66.492113 0 0 1-23.330565-129.01803A132.051003 132.051003 0 0 1 0.001866 364.063098v-177.3123a88.65615 88.65615 0 0 1 67.19203-85.856483V56.099629a46.661132 46.661132 0 0 1 46.661132-46.661132h130.184557a46.661132 46.661132 0 0 1 46.661132 46.661132v41.995018H704.584956A285.799432 285.799432 0 0 0 699.918842 149.421892zM178.947307 208.914835a88.65615 88.65615 0 1 0 89.356067 88.656151 89.122762 89.122762 0 0 0-89.356067-88.656151zM275.069238 774.681057A1071.106279 1071.106279 0 0 0 536.604881 807.34385a1031.444317 1031.444317 0 0 0 261.768949-33.596015l48.060966-233.305659H226.774967z m971.018151-825.668726l-71.624837 71.858143A231.205908 231.205908 0 0 1 1213.191292 149.421892a233.305659 233.305659 0 1 1-233.305659-233.305658 231.205908 231.205908 0 0 1 128.551418 38.728739l71.858143-71.624837a46.661132 46.661132 0 0 1 65.792195 65.792195zM839.902238 149.421892a139.983395 139.983395 0 1 0 139.983395-139.983395 139.983395 139.983395 0 0 0-139.983395 139.983395z"  horiz-adv-x="1257" />

    
    <glyph glyph-name="dingwei" unicode="&#58882;" d="M930.909 477.091c0 232.727-186.182 418.909-418.909 418.909s-418.909-186.182-418.909-418.909c0-172.218 228.073-428.218 335.127-539.927h-125.673v-65.164h418.909v65.164h-130.327c111.709 111.709 339.782 367.709 339.782 539.927zM167.564 477.091c0 190.836 153.6 344.436 344.436 344.436s344.436-153.6 344.436-344.436c0-148.945-228.073-386.327-344.436-512-116.364 125.673-344.436 363.055-344.436 512zM516.655 695.855c-102.4 0-186.182-83.782-186.182-186.182s83.782-186.182 186.182-186.182 186.182 83.782 186.182 186.182-83.782 186.182-186.182 186.182zM516.655 397.964c-60.509 0-111.709 51.2-111.709 111.709s51.2 111.709 111.709 111.709c60.509 0 111.709-51.2 111.709-111.709s-51.2-111.709-111.709-111.709z"  horiz-adv-x="1024" />

    
    <glyph glyph-name="Group-" unicode="&#59039;" d="M768 448a320 320 0 1 1-320-320 320 320 0 0 1 320 320z m64 0A384 384 0 1 0 448 832a384 384 0 0 0 384-384zM681.28 169.28a32 32 0 0 0 45.44 45.44l160-160a32 32 0 0 0-45.44-45.44zM320 416a32 32 0 0 0 0 64h256a32 32 0 0 0 0-64zM480 320a32 32 0 0 0-64 0v256a32 32 0 0 0 64 0z"  horiz-adv-x="1024" />

    
    <glyph glyph-name="zoomOut" unicode="&#58950;" d="M876.414-3.45799999999997a25.8 25.8 0 0 0-18.375 7.619L694.95 167.25800000000004l-4.162-3.369c-58.256-47.18-131.523-73.16-206.32-73.16-181.07 0-328.377 147.308-328.377 328.367 0 181.069 147.307 328.376 328.376 328.376 181.064 0 328.376-147.307 328.376-328.376 0-77.071-27.412-152.07-77.168-211.17l-3.523-4.172 162.719-162.745a25.846 25.846 0 0 0 7.639-18.432 26.081 26.081 0 0 0-26.05-26.045l-0.047 0.01zM484.463 695.376c-152.335 0-276.27-123.935-276.27-276.27 0-152.33 123.935-276.27 276.27-276.27 152.34 0 276.275 123.94 276.275 276.27 0 152.335-123.935 276.27-276.275 276.27zM615.878 392.979h-262.83a26.127 26.127 0 0 0 0 52.254h262.83a26.127 26.127 0 0 0 0-52.254z"  horiz-adv-x="1024" />

    
    <glyph glyph-name="xuanzhuan" unicode="&#59008;" d="M935.497143 236.982857a36.937143 36.937143 0 0 0-1.755429-18.505143 434.322286 434.322286 0 0 0-370.980571-337.773714C325.632-149.650286 107.373714 19.748571 77.531429 258.706286a435.712 435.712 0 0 0 378.587428 487.131428c5.778286 1.243429 13.385143 1.901714 19.748572 1.974857-2.633143 24.137143-5.851429 46.518857-7.899429 66.267429-3.291429 25.526857-6.582857 44.617143-6.582857 50.980571-1.974857 7.021714-1.389714 15.36 3.657143 21.065143a21.796571 21.796571 0 0 0 31.305143 4.608l0.585142-1.243428 17.993143-16.530286 126.683429-98.962286 17.92-13.312 15.36-11.410285c5.12-3.803429 7.68-8.850286 8.996571-14.628572a20.260571 20.260571 0 0 0-4.388571-16.603428l-11.410286-15.36-13.312-17.92L555.885714 558.08l-14.555428-18.578286-1.243429-0.658285a23.625143 23.625143 0 0 0-31.890286-3.291429c-5.778286 5.12-9.654857 12.726857-8.411428 19.748571-1.316571 5.705143-3.291429 25.453714-6.582857 50.980572-2.633143 17.846857-5.266286 38.838857-7.899429 59.904-6.436571 0-13.385143-1.974857-19.748571-1.974857-193.828571-24.502857-332.726857-201.801143-308.297143-395.556572 24.502857-193.828571 201.801143-332.726857 395.556571-308.224a353.426286 353.426286 0 0 1 303.616 281.307429 40.082286 40.082286 0 0 0 34.377143 30.134857c22.235429 3.291429 43.373714-13.165714 44.763429-34.889143z"  horiz-adv-x="1024" />

    
    <glyph glyph-name="xuanzhuan1" unicode="&#59037;" d="M930.909091 551.563636c-41.890909 111.709091-130.327273 209.454545-242.036364 256-102.4 51.2-232.727273 51.2-349.090909 9.309091-74.472727-27.927273-134.981818-69.818182-186.181818-121.018182l-9.309091-13.963636V802.909091c0 23.272727-13.963636 41.890909-41.890909 41.890909-27.927273 0-41.890909-18.618182-41.890909-41.890909v-251.345455c0-23.272727 13.963636-41.890909 41.890909-41.890909h251.345455c23.272727 0 41.890909 13.963636 41.890909 41.890909 0 23.272727-13.963636 41.890909-41.890909 41.890909H186.181818l9.309091 9.309091c41.890909 60.509091 97.745455 107.054545 167.563636 134.981819 88.436364 37.236364 195.490909 32.581818 288.581819-9.309091 88.436364-41.890909 158.254545-111.709091 195.490909-204.8 37.236364-93.090909 37.236364-200.145455-4.654546-293.236364-41.890909-88.436364-111.709091-158.254545-204.8-195.490909-88.436364-37.236364-195.490909-32.581818-288.581818 9.309091-88.436364 41.890909-158.254545 111.709091-195.490909 204.8-4.654545 13.963636-23.272727 27.927273-37.236364 27.927273-4.654545 0-9.309091 0-18.618181-4.654546s-18.618182-13.963636-23.272728-23.272727c-4.654545-9.309091-4.654545-23.272727 0-32.581818 41.890909-111.709091 130.327273-209.454545 242.036364-256 60.509091-27.927273 125.672727-41.890909 190.836364-41.890909 55.854545 0 116.363636 9.309091 162.90909 27.927272 111.709091 41.890909 209.454545 130.327273 256 242.036364 41.890909 125.672727 46.545455 251.345455 4.654546 363.054545z"  horiz-adv-x="1024" />

    
    <glyph glyph-name="fenlei" unicode="&#58905;" d="M473.6 405.333333h-181.333333C177.066667 405.333333 85.333333 499.2 85.333333 614.4s93.866667 209.066667 209.066667 209.066667 209.066667-93.866667 209.066667-209.066667v-181.333333c-2.133333-14.933333-14.933333-27.733333-29.866667-27.733334zM292.266667 768c-85.333333 0-153.6-70.4-153.6-155.733333s70.4-153.6 153.6-153.6H448v153.6C448 699.733333 377.6 768 292.266667 768zM740.266667 405.333333h-181.333334c-14.933333 0-25.6 12.8-25.6 25.6v181.333334c0 115.2 93.866667 209.066667 209.066667 209.066666s209.066667-93.866667 209.066667-209.066666-96-206.933333-211.2-206.933334z m-155.733334 53.333334h153.6c85.333333 0 153.6 70.4 153.6 153.6S825.6 768 740.266667 768s-153.6-70.4-153.6-155.733333v-153.6zM292.266667-42.666667C177.066667-42.666667 85.333333 49.066667 85.333333 164.266667s93.866667 209.066667 209.066667 209.066666h181.333333c14.933333 0 25.6-12.8 25.6-25.6v-181.333333c0-117.333333-93.866667-209.066667-209.066666-209.066667z m0 362.666667c-85.333333 0-153.6-70.4-153.6-153.6s70.4-153.6 153.6-153.6 153.6 70.4 153.6 153.6V320h-153.6zM740.266667-42.666667c-115.2 0-209.066667 93.866667-209.066667 209.066667v181.333333c0 14.933333 12.8 25.6 25.6 25.6h181.333333c115.2 0 209.066667-93.866667 209.066667-209.066666S855.466667-42.666667 740.266667-42.666667z m-155.733334 362.666667v-153.6c0-85.333333 70.4-153.6 153.6-153.6s153.6 70.4 153.6 153.6-66.133333 153.6-151.466666 153.6h-155.733334z"  horiz-adv-x="1024" />

    
    <glyph glyph-name="dianji" unicode="&#59347;" d="M885.54382222 300.90808889000004c-0.32995555 23.97297778-10.39928889 46.25066667-27.61386667 61.12142222-49.65262222 42.98524445-136.15786667 76.60657778-207.04142222 98.88426667 45.35182222 46.94471111 71.03146667 108.97635555 71.03146667 175.60462222 0 139.85564445-113.78915555 253.65617778-253.65617778 253.65617778S214.60764445 776.37404445 214.60764445 636.50702222c0-97.00693333 56.44515555-185.78773333 142.51804444-227.93102222v-136.03271111c-86.84657778 50.44906667-147.63804445 63.78382222-185.59431111 40.73244444-23.74542222-14.40426667-35.58968889-41.14204445-33.35964445-75.28675555 3.53848889-54.10133333 41.48337778-101.61493333 96.6656-121.0368 124.75733333-43.91822222 212.77582222-157.696 244.82702222-204.58382223 14.92764445-21.82257778 39.6288-34.83875555 66.1048889-34.83875555h249.25297777c49.62986667 0 90.28266667 40.3456 90.624 89.95271111 0.54613333 82.64817778 1.25155555 235.86133333-0.1024 333.42577778z m-614.51377777 335.59893333c0 108.76017778 88.48497778 197.23377778 197.23377777 197.23377778s197.23377778-88.4736 197.23377778-197.23377778c0-62.09991111-28.37617778-119.33013333-77.85813333-157.01333333l0.27306666-0.36408889c-8.92017778 2.36657778-17.12355555 4.47146667-24.064 6.17813333V644.3008c0 56.99128889-46.36444445 103.34435555-103.35573333 103.34435555-57.00266667 0-103.36711111-46.35306667-103.36711111-103.34435555V473.65688889c-52.80426667 36.27235555-86.09564445 97.14346667-86.09564444 162.85013333z m558.19377777-668.63786667c-0.12515555-18.69368889-15.4624-33.90577778-34.2016-33.90577777H545.76924445c-7.82791111 0-15.13244445 3.83431111-19.53564445 10.26275555-35.19146667 51.46168889-132.18702222 176.50346667-272.66844445 225.96266667-33.84888889 11.90115555-57.04817778 39.97013333-59.10755555 71.48657778-0.36408889 5.65475555-0.48924445 19.2512 6.31466667 23.38133333 1.024 0.62577778 5.07448889 2.63964445 14.01742222 2.63964444 17.87448889 0 55.296-8.11235555 127.26044444-51.82577777 14.5408-8.81777778 32.79075555-9.1136 47.616-0.80782223 14.73422222 8.28302222 23.87057778 23.92746667 23.87057778 40.8120889V644.3008c0 25.87306667 21.06026667 46.92195555 46.94471111 46.92195555 25.87306667 0 46.93333333-21.04888889 46.93333333-46.92195555v-158.98168889c0-26.10062222 17.64693333-48.65137778 42.9056-54.86364444 46.64888889-11.45742222 204.02631111-53.39591111 270.67733334-111.09262222 5.05173333-4.36906667 7.99857778-11.3664 8.11235556-19.2512 1.36533333-97.06382222 0.65991111-249.81048889 0.11377777-332.2424889z"  horiz-adv-x="1024" />

    
    <glyph glyph-name="huo" unicode="&#59174;" d="M768 554.666667L640 426.666667S682.666667 793.6 426.666667 896c0 0 42.666667-128-170.666667-341.333333-81.92-81.92-170.666667-170.666667-170.666667-341.333334 0-213.333333 170.666667-341.333333 426.666667-341.333333 188.245333 0 426.666667 85.333333 426.666667 341.333333 0 170.666667-54.016 202.666667-170.666667 341.333334z"  horiz-adv-x="1024" />

    
    <glyph glyph-name="xiala" unicode="&#58884;" d="M975.98577778 532.93511111L561.152 79.30311111000003a65.28227555 65.28227555 0 0 0-49.03822222-22.18666666c-18.77333333 0-36.63644445 8.07822222-49.03822223 22.18666666L48.24177778 532.93511111c-20.25244445 21.39022222-26.51022222 52.56533333-16.04266667 80.09955556s35.72622222 46.76266667 65.08088889 49.37955555l829.32622222 0c29.46844445-2.50311111 54.84088889-21.61777778 65.30844445-49.26577776 10.58133333-27.648 4.32355555-58.70933333-15.92888889-80.21333335z"  horiz-adv-x="1024" />

    
    <glyph glyph-name="xiala2" unicode="&#58889;" d="M957.6448 420.11761778c8.73927111 0 16.89372445-3.49525333 22.71914667-9.32067556 12.23338667-12.23338667 12.23338667-32.62236445 0-45.43829333l-442.73208889-442.14954667c-5.82542222-5.82542222-13.98101333-9.32181333-22.71914667-9.32067555s-16.89372445 3.49525333-22.71914666 9.32067555c-12.23338667 12.23338667-12.23338667 32.62236445 0 45.43829333l442.73208888 442.14954667c5.82542222 5.82542222 13.98101333 9.32181333 22.71914667 9.32067556zM71.01553778 420.11761778c8.73927111 0 16.89372445-3.49525333 22.71914667-9.32067556l442.73208888-441.56700444c12.23338667-12.23338667 12.23338667-32.62236445 0-45.43829333-6.40796445-6.40796445-14.56355555-9.32181333-22.71914666-9.32067556s-16.89372445 3.49525333-22.71914667 9.32067556l-442.14954667 441.56700444c-12.23338667 12.23338667-12.23338667 32.62236445 0 45.43829333 5.82542222 5.82542222 13.39847111 9.32181333 22.13660445 9.32067556zM954.14954667 803.4304c8.73927111 0 16.31118222-2.91271111 22.13660444-8.73813333 6.40796445-6.40796445 9.90321778-14.56355555 9.90321778-23.30168889s-3.49525333-16.89372445-9.90321778-22.71914667l-442.14954666-435.15904c-5.82542222-5.82542222-13.98101333-8.73927111-22.71914667-8.73813333s-16.31118222 2.91271111-22.13660445 8.73813333c-6.40796445 5.82542222-9.90321778 13.98101333-9.90321778 22.71914667s3.49525333 16.89372445 9.90321778 23.30168889l442.14954667 435.15904c5.82542222 5.82542222 13.98101333 8.73927111 22.71914667 8.73813333zM66.93774222 803.4304c8.73927111 0 16.31118222-2.91271111 22.13660445-8.73813333l442.73095111-435.74158222c6.40796445-5.82542222 9.90321778-13.98101333 9.90321777-22.71914667s-3.49525333-16.89372445-9.90321777-23.30168889c-5.82542222-5.82542222-13.98101333-8.73927111-22.71914667-8.73813334s-16.31118222 2.91271111-22.71914666 8.73813334l-442.14954667 435.74158222c-6.40796445 5.82542222-9.90321778 13.98101333-9.90321778 22.71914667s3.49525333 16.89372445 9.90321778 23.30168889c6.40796445 5.82542222 14.56355555 8.73927111 22.71914667 8.73813333z"  horiz-adv-x="1024" />

    
    <glyph glyph-name="tuichu2" unicode="&#59003;" d="M502.46235723 384.87155684a32.99604434 32.99604434 0 0 0-33.61436983 32.26529707V801.56606894C468.8479874 819.44126865 483.91262158 834 502.46235723 834c18.60594697 0 33.72679159-14.61494268 33.7267916-32.43393105v-384.26058106a33.05225566 33.05225566 0 0 0-33.67058028-32.43393105zM492.34431904-65.38111376999996a437.15543203 437.15543203 0 0 0-304.10323857 121.52887295A413.49046729 413.49046729 0 0 0 96.05451641 188.01951562a402.0233581 402.0233581 0 0 0 15.4581126 354.01889004A424.67651982 424.67651982 0 0 0 242.37258154 686.72634229a34.45753887 34.45753887 0 0 0 46.99266241-7.53231622 31.59076201 31.59076201 0 0 0-7.86958418-45.13768945 358.96548692 358.96548692 0 0 1-110.39903175-122.20340889 334.738408 334.738408 0 0 1-41.54016532-162.22586835c0-93.53563594 37.77400635-181.45013994 106.35181699-247.55465128a367.17233994 367.17233994 0 0 1 256.54846201-102.52944755 367.39718437 367.39718437 0 0 1 256.54846289 102.47323623 341.53997783 341.53997783 0 0 1 106.23939434 247.6108626 334.45735136 334.45735136 0 0 1-41.42774268 162.22586835 358.62821895 358.62821895 0 0 1-110.56766573 122.09098623 31.59076201 31.59076201 0 0 0-8.26306435 44.51936485l0.56211328 0.67453593a34.40132754 34.40132754 0 0 0 46.93645196 7.53231623 424.11440654 424.11440654 0 0 0 130.80374121-144.6317253 401.62987881 401.62987881 0 0 0 15.51432392-354.01889004 412.92835401 412.92835401 0 0 0-92.18656406-131.92796777 430.57870839 430.57870839 0 0 0-136.70592978-88.92630703A442.4955082 442.4955082 0 0 0 492.34431904-65.38111376999996z"  horiz-adv-x="1024" />

    
    <glyph glyph-name="dingdanchaxun1" unicode="&#58952;" d="M219.136 374.27200000000005c-18.944 0-33.792 15.36-33.792 33.792 0 18.944 15.36 33.792 33.792 33.792h312.32c18.944 0 33.792-15.36 33.792-33.792 0-18.944-15.36-33.792-33.792-33.792h-312.32z m0-227.328c-18.944 0-33.792 15.36-33.792 33.792s15.36 33.792 33.792 33.792h199.168c18.944 0 33.792-15.36 33.792-33.792s-15.36-33.792-33.792-33.792H219.136z m4.096 446.464c-18.944 0-33.792 15.36-33.792 33.792 0 18.944 15.36 33.792 33.792 33.792h454.656c18.944 0 33.792-15.36 33.792-33.792 0-18.432-15.36-33.792-33.792-33.792H223.232zM136.192-58.879999999999995c-50.176 0-90.624 40.96-90.624 90.624V770.56c0 50.176 40.96 90.624 90.624 90.624h625.152c50.176 0 90.624-40.96 90.624-90.624v-317.44c0-18.944-15.36-33.792-33.792-33.792-18.944 0-33.792 15.36-33.792 33.792v317.44c0 12.288-10.24 23.04-23.04 23.04H136.192c-12.288 0-23.04-10.24-23.04-23.04v-738.304c0-12.288 10.24-23.04 23.04-23.04H460.8c18.432 0 33.792-15.36 33.792-33.792 0-18.944-15.36-33.792-33.792-33.792l-324.608-0.512zM943.616-94.72000000000003c-9.216 0-17.408 3.584-24.064 9.728l-83.968 83.968-5.632 0.512-0.512-0.512c-33.792-23.04-73.216-35.328-114.176-35.328-112.128 0-203.264 91.136-203.264 203.776s91.136 203.264 203.264 203.264 203.264-91.136 203.264-203.264c0-40.96-12.288-80.384-35.328-114.176l-0.512-0.512 0.512-5.632 83.968-83.968c6.656-6.656 9.728-14.848 9.728-24.064 0-9.216-3.584-17.408-10.24-24.064-5.12-6.144-13.824-9.728-23.04-9.728z m-227.84 397.824c-74.752 0-135.68-60.928-135.68-135.68s60.928-135.68 135.68-135.68 135.68 60.928 135.68 135.68-60.928 135.68-135.68 135.68z"  horiz-adv-x="1024" />

    
    <glyph glyph-name="wodeziliao" unicode="&#58888;" d="M512.67292587 24.649792000000048c-108.4202464 0-216.84267627-0.00654933-325.26510614 0.00436587-22.58150293 0.00218347-45.17501227-0.3733024-67.74450773 0.17901013-40.49672853 0.99110613-73.12136747 28.2432512-81.6942176 67.83073813-1.23451627 5.70759253-1.82503253 11.66951147-1.8283072 17.51354454-0.09277973 181.10391253-0.1080608 362.2045504-0.05566827 543.30737066 0.01418987 47.34605867 38.0604416 85.5658624 85.31153707 85.5767776 260.84866347 0.06003413 521.69732693 0.05894293 782.5459904 0.0010912 47.2467296-0.0109152 85.30498773-38.22635307 85.3180864-85.57132053 0.05566827-181.10172907 0.05785067-362.2045504 0-543.304096-0.01528107-46.30255893-36.15245333-83.65787413-82.3884288-85.3846688-7.65160107-0.28597973-15.31957547-0.14735573-22.97990933-0.1495392-107.6387136-0.00873173-215.27851947-0.00436587-322.91723307-0.00218347C544.87514453 24.651975470000025 528.772944 24.651975470000025 512.67292587 24.649792000000048zM629.1082528 83.87384320000001c2.44065387 0 4.56258133 0 6.6834176 0 31.82018347 0 63.63709333 0 95.45291093 0 56.9580416 0 113.914992-0.0218304 170.87085014 0.019648 13.19219093 0.00873173 23.42525227 7.2510112 26.5972288 19.01875947 0.8994176 3.3466208 0.98019093 6.98795307 0.98019093 10.4928448 0.0425696 178.92304213 0.03820373 357.84826773 0.02947093 536.77240106 0 2.15904-0.00436587 4.32790293-0.203024 6.47384427-1.05550613 11.30166613-10.21996373 21.0479072-21.47906026 22.577136-3.8716448 0.52611627-7.83497813 0.54903787-11.7535584 0.55012907-255.71739733 0.0229216-511.43697707 0.0218304-767.1543744 0.019648-2.1612224 0-4.32244587 0.0414784-6.4814848-0.0436608-16.7592992-0.65928213-27.00982613-11.0156864-27.0131008-27.7313248-0.0425696-164.19398187-0.02728853-328.38796373-0.00654934-492.58194667 0-1.5707072 0.29252907-3.14687147 0.60579734-6.3079328 1.4986656 3.39355627 2.28674773 5.1443648 3.0486336 6.90499733 29.57928 68.5293152 78.85188267 116.83155093 148.72814186 143.3370912 49.53020267 18.78626453 100.86360853 22.309712 153.057136 15.09362987 56.62403413-7.8284288 106.655248-30.19817493 148.21839894-69.7681984C596.15178987 204.08694292999996 623.71065387 149.76384640000003 629.1082528 83.87384320000001zM568.643136 85.59190612999998c0 2.84015253 0.1495392 4.2231168-0.02947093 5.5624192-0.4693568 3.4983424-0.9081504 7.0141504-1.6667616 10.459008-13.69320107 62.2104672-49.2573216 107.99673493-105.67396587 136.75191147-52.5406336 26.78060587-108.62436267 30.73738987-165.21019307 17.3345344-75.03590507-17.77769387-125.09986453-64.20359573-148.50328746-138.1829024-3.20035627-10.12172587-4.46761813-20.853616-6.68014294-31.54293653 2.42209707-0.5675936 3.337888-0.93762133 4.2678688-0.9747328 10.18612587-0.38967467 20.3744352-1.03149227 30.55947094-1.0380416 124.3205152-0.0851392 248.6410304-0.09823787 372.96154453-0.01528107C555.24901333 83.9502496 561.82764373 85.00357333 568.643136 85.59190612999998zM215.05073067 478.33955307c0.03820373 78.12929173 63.13389973 141.09291307 141.32759146 141.03178773 78.06161707-0.06112533 141.57427627-63.54867947 141.32868267-141.26755733-0.24995947-77.88478933-63.83793387-140.98812587-141.8493408-140.7599968C277.95541013 337.57082453 215.012528 400.5977536 215.05073067 478.33955307zM438.0747232 478.1649088c0.0764064 45.05166933-36.40022933 81.8339328-81.2979936 81.98019733-45.2797984 0.14735573-82.3556832-36.50392427-82.50194773-81.55886826-0.14735573-44.9250528 37.06933547-82.14065173 82.07625173-82.07406934C401.30664853 396.57875307 437.99831573 433.23985707 438.0747232 478.1649088zM573.69799573 561.58701333c0 19.6562112 0 38.81577813 0 58.36392747 98.503728 0 196.7323904 0 295.46861334 0 0-19.42808213 0-38.70553387 0-58.36392747C770.7338304 561.58701333 672.48988693 561.58701333 573.69799573 561.58701333zM573.71982613 442.4239616c0 19.75772267 0 38.9151072 0 58.4119552 98.53210773 0 196.76950187 0 295.47952854 0 0-19.4837504 0-38.7579264 0-58.4119552C770.6694304 442.4239616 672.4320352 442.4239616 573.71982613 442.4239616zM573.74056533 323.28928959999996c0 19.52632 0 38.70007573 0 58.33991467 59.57333973 0 119.13248853 0 178.98853334 0 0-19.46082773 0-38.79285547 0-58.33991467C692.89161067 323.28928959999996 633.47654187 323.28928959999996 573.74056533 323.28928959999996z"  horiz-adv-x="1024" />

    
    <glyph glyph-name="bianji2" unicode="&#59152;" d="M287.64842667 171.35752533000004l13.53075674-13.53075674c11.20908325-11.20786963 29.38318697-11.20786963 40.59105659 0L969.13787259 786.40803082c11.20786963 11.20786963 11.20786963 29.3807597 0 40.59105659l-13.53075674 13.53075674c-11.20908325 11.20786963-29.38318697 11.20786963-40.5910566 0L287.64842667 211.94858192000004C276.44055703 200.74071230000004 276.44055703 182.56782222000004 287.64842667 171.35752533000004zM978.48767525 344.85316266999996c0 10.2442477-8.30486755 18.54911525-18.54911525 18.54911525l-40.57527941 0c-10.2442477 0-18.54911525-8.30486755-18.54911526-18.54911525l0-40.57527942c0-0.24515318 0.02669985-0.48423822 0.03640889-0.72696414l0-288.61326222c0-10.72241778-8.69322903-19.41564682-19.41807407-19.41564681l-737.88681482 0c-10.72484503 0-19.41807408 8.69322903-19.41807408 19.41564681L124.12761125 752.83053985c0 10.72241778 8.69322903 19.41564682 19.41807408 19.41564682L551.62258015 772.24618667c0.01577718 0 0.03155437-0.00242725 0.04854518-0.00242726l40.57527942 0c10.2442477 0 18.54911525 8.30486755 18.54911525 18.54911526l0 40.57406578c0 10.2442477-8.30486755 18.54911525-18.54911525 18.54911525L571.35255703 849.9160557l0 0.00364089-505.47795436 0c-10.72484503 0-19.41807408-8.69322903-19.41807408-19.41564681l0-893.23747556c0-10.72241778 8.69322903-19.41564682 19.41807408-19.41564681l893.23140741 0c10.72484503 0 19.4192877 8.69322903 19.4192877 19.41564681l0 386.54103703-0.03762253 0L978.48767525 344.85316266999996z"  horiz-adv-x="1024" />

    
    <glyph glyph-name="mingxi2" unicode="&#59095;" d="M823.17425778 804.59434667H766.70293333c-15.61486222 0-33.64181333-9.53230222-33.64181333-25.01632 0-15.49539555 18.02808889-30.97827555 33.64181333-30.97827556h56.47132445c33.64181333 0 56.45994667-22.63836445 56.45994667-56.00597333v-644.59320889c0-33.35509333-22.81813333-56.00597333-56.45994667-56.00597334H215.24593778c-33.64181333 0-70.87900445 22.65088-70.87900445 56.00597334V692.59377778c0 33.36760889 22.81813333 56.00597333 56.45994667 56.00597333h70.87900445c15.62510222 0 21.63598222 15.48288 21.63598222 30.97827556 0 15.48288-6.00860445 25.01632-21.63598222 25.01632h-70.87900445c-79.28945778 0-112.93240889-48.85048889-112.93240889-113.18272v-637.44796445c0-69.11089778 42.05226667-117.96138667 118.94101334-117.96138667h610.31765333c76.90012445 0 118.95239111 40.51057778 118.95239111 117.96138667V691.41162667c0 64.33223111-39.65155555 113.18272-112.93240889 113.18272z m-551.46951111-252.58894222c0-15.49539555 13.22439111-28.60032 28.83925333-28.60032h424.10552889c15.61486222 0 28.83925333 13.10492445 28.83925333 28.60032 0 15.48288-13.22439111 28.58780445-28.83925333 28.58780444H300.544c-15.61372445 0.00113778-28.83925333-13.10378667-28.83925333-28.58780444z m451.75011555-126.30016H300.544c-15.61486222 0-28.83925333-13.10492445-28.83925333-28.60032 0-15.48288 13.22439111-28.58780445 28.83925333-28.58780445h424.10552889c15.61486222 0 28.83925333 13.10492445 28.83925333 28.58780445-1.20604445 16.67868445-14.41905778 28.60032-30.03392 28.60032z m0-167.9928889H300.544c-15.61486222 0-28.83925333-13.11744-28.83925333-28.60032 0-15.49539555 13.22439111-28.60032 28.83925333-28.60032h424.10552889c15.61486222 0 28.83925333 13.10492445 28.83925333 28.60032-1.20604445 16.67868445-14.41905778 28.60032-30.03392 28.60032zM414.68245333 734.29902222h197.03580445c22.82951111 0 42.05226667 22.63836445 42.05226667 48.85048889s-19.22275555 48.85162667-43.25717334 48.85162667H414.68359111c-24.02417778 0-43.24693333-22.63836445-43.24693333-48.85048889s19.22275555-48.85162667 43.24693333-48.85162667z"  horiz-adv-x="1024" />

    
    <glyph glyph-name="jifen2" unicode="&#58914;" d="M999.62667615 529.66144592l-149.10491853 243.42497659a71.45851259 71.45851259 0 0 1-60.61028147 33.94279348H224.09468799c-24.82924445 0-47.43188268-12.60880236-60.50671882-33.81333924l-148.92368235-242.02687527a71.12193305 71.12193305 0 0 1 8.93231407-86.11268623l432.94537956-477.52927763a71.3808403 71.3808403 0 0 1 51.57440473-22.1624948 71.45851259 71.45851259 0 0 1 51.60029511 22.18838637l430.97768179 476.1311763a71.25138606 71.25138606 0 0 1 8.93231407 85.95734043zM508.09049483 2.111209469999949L69.83750755 496.08112355l152.4966092 249.40574342h571.22795733l150.81370903-250.80384475L508.09049483 2.111209469999949zM668.17309749 541.10516505H361.31574518a33.45086934 33.45086934 0 0 1 0-66.90173869h306.85735231a33.4767597 33.4767597 0 1 1 0 66.90173869z"  horiz-adv-x="1024" />

    
    <glyph glyph-name="shezhi-copy" unicode="&#58880;" d="M1006.2134375 428.911875c0.0215625 24.860625-14.8359375 43.7934375-36.1134375 47.296875-21.2653125 3.493125-89.9409375 14.8021875-97.8384375 16.089375-7.906875 1.30875-16.03125 9.181875-17.521875 13.0265625-1.501875 3.8353125-10.171875 25.2590625-13.5046875 33.519375-3.3571875 8.2715625-2.1853125 18.864375 4.995 29.03625 7.168125 10.1596875 45.3965625 63.568125 55.0453125 77.05125 9.66 13.5046875 9.841875 39.3778125-5.506875 55.0565625-15.3384375 15.67875-54.3290625 53.578125-64.5459375 63.5559375-10.228125 9.9665625-35.3615625 9.8296875-48.549375 0.4903125-13.1746875-9.33-81.5671875-58.0378125-81.5671875-58.0378125s-11.34375-7.839375-23.518125-3.00375c-12.174375 4.8253125-38.03625 16.00875-38.03625 16.00875s-8.1796875 6.178125-11.0128125 22.5159375c-2.8453125 16.35-12.64125 74.274375-16.00875 94.0940625-3.37875 19.8196875-23.518125 33.70125-43.0415625 33.519375-19.524375-0.159375-65.889375 0-84.5709375 0s-36.705-17.8396875-39.538125-33.519375c-2.833125-15.69-13.153125-78.6890625-16.00875-96.0853125-2.866875-17.4084375-13.0171875-21.02625-13.0171875-21.02625s-22.2553125-9.1696875-34.03125-14.00625c-11.76375-4.846875-17.5096875-3.00375-34.5309375 8.510625-17.01 11.503125-50.9053125 35.30625-71.72625 49.869375-20.8209375 14.5753125-43.3715625 9.01125-56.0465625-4.005s-41.0278125-40.69875-58.0490625-57.3778125c-17.01-16.6790625-14.3484375-42.7134375 0.66-63.38625 15.01875-20.685 36.7959375-51.69 47.0465625-66.2296875 10.2515625-14.540625 12.33375-22.186875 9.5109375-30.5146875-2.833125-8.35125-7.5553125-18.864375-13.005-31.539375-5.473125-12.6628125-11.025-15.519375-31.6978125-19.35375-19.75125-3.6515625-66.46875-11.285625-88.0640625-15.1434375-21.605625-3.8353125-34.884375-24.3834375-34.884375-47.5696875v-73.569375c0-27.69375 15.01875-42.37125 43.7128125-47.7065625 28.6940625-5.3371875 71.293125-12.129375 85.0715625-14.3484375 13.7671875-2.2190625 20.1046875-7.509375 24.3590625-17.68125 4.2440625-10.171875 5.836875-11.5153125 10.66125-25.68 4.846875-14.188125 7.35-17.6934375-5.66625-36.0328125-13.0171875-18.3515625-39.0365625-54.7378125-52.3715625-73.3978125-13.3584375-18.6590625-7.33875-43.0415625 5.66625-56.7178125 13.0171875-13.6865625 40.3565625-40.5496875 55.7165625-55.7165625 15.3478125-15.166875 40.0378125-18.523125 60.710625-4.005 20.6971875 14.506875 62.5546875 44.3615625 74.7403125 53.0428125 12.174375 8.6821875 24.9290625 6.0065625 31.6865625 3.345 6.7584375-2.67375 12.7996875-5.2340625 25.03125-10.35375 12.208125-5.098125 15.7584375-12.7434375 18.67125-26.68125 2.9240625-13.925625 11.5940625-64.6828125 15.8503125-89.4178125 4.2665625-24.7134375 21.515625-38.03625 46.216875-38.36625 24.69-0.33 37.854375-0.136875 70.0528125 0 32.188125 0.148125 47.6278125 14.3484375 51.7115625 35.7028125 4.08375 21.345 14.1646875 82.9903125 16.179375 95.25375 2.0259375 12.241875 6.7584375 16.75875 15.508125 21.0140625 8.7609375 4.2553125 16.2928125 7.36125 30.538125 13.516875 14.2340625 6.144375 21.515625 0.7509375 31.516875-6.508125 10.0134375-7.2703125 54.0553125-38.43375 72.5671875-51.553125 18.523125-13.119375 41.7909375-11.754375 59.05125 5.00625 17.270625 16.75875 35.9765625 35.2603125 56.05875 55.0453125 20.07 19.7971875 13.835625 45.0440625 5.00625 58.5496875-8.840625 13.516875-50.6203125 71.623125-56.559375 79.9059375-5.926875 8.2828125-5.00625 21.1846875-1.99125 28.0228125 3.00375 6.838125 9.6028125 20.7534375 13.3340625 28.6940625 3.7434375 7.93125 10.9228125 12.7659375 20.685 14.6765625 9.7621875 1.9228125 71.360625 12.5146875 95.289375 16.6228125 23.926875 4.141875 35.39625 22.665 35.566875 45.42 0.170625 22.779375 0.0796875 55.3078125 0.1021875 75.07125zM963.228125 352.36125000000004c0.2390625-6.5540625-5.3015625-12.1171875-10.035-12.9478125-4.7446875-0.830625-71.9746875-12.9478125-92.705625-16.2590625-20.71875-3.3234375-37.8084375-17.146875-44.0540625-31.925625-4.528125-10.74-6.2240625-15.3721875-12.04875-30.6740625-5.8246875-15.2915625-5.2790625-36.6253125 2.9128125-48.0815625 8.191875-11.469375 53.2696875-73.8421875 57.3215625-80.1571875s4.8590625-13.5965625-1.4559375-19.910625-46.6378125-46.876875-53.919375-53.919375c-7.2928125-7.0434375-13.4596875-5.4609375-21.37875 0-7.906875 5.4609375-45.0684375 30.02625-73.318125 50.47125-19.2965625 13.9715625-37.3415625 14.143125-55.41 6.849375-18.0571875-7.305 1.4559375 0.31875-25.2590625-10.205625-26.715-10.5253125-34.395-31.425-38.3784375-54.8859375-3.9815625-23.4721875-12.1396875-71.6578125-13.5965625-80.1571875-1.4559375-8.499375-6.315-12.6290625-15.541875-12.6290625h-73.8421875c-9.2278125 0-13.3584375 3.4021875-16.520625 13.5965625-3.151875 10.205625-11.4121875 62.43-14.563125 84.5259375-3.163125 22.1071875-15.72375 41.0971875-28.1821875 46.1484375-12.4471875 5.0634375-5.66625 2.4346875-31.08375 12.6290625-25.4184375 10.205625-45.09 5.1196875-58.288125-4.36875-13.2103125-9.489375-66.7190625-48.571875-74.330625-53.43-7.6003125-4.869375-16.66875-3.7321875-20.878125 0.478125-4.2103125 4.2103125-46.1484375 46.1484375-52.9528125 52.9528125-6.804375 6.804375-6.0984375 14.7 0 23.3128125 6.0984375 8.6240625 32.3015625 46.3753125 46.6378125 65.934375 14.3240625 19.5703125 20.4 39.5259375 11.173125 60.8596875-9.238125 21.3215625-5.02875 11.65125-14.0971875 32.540625-9.0571875 20.8903125-27.62625 27.8296875-43.7128125 30.605625-16.089375 2.7646875-78.3703125 13.119375-87.4378125 15.0534375-9.0684375 1.94625-13.5965625 8.2603125-13.5965625 16.03125v75.298125c0 10.843125 8.72625 14.154375 14.085 15.0534375 5.3465625 0.9103125 61.69125 10.4446875 83.0578125 14.0971875 21.37875 3.64125 41.37 12.8803125 49.5496875 33.0290625 8.1796875 20.139375 4.8590625 12.6290625 12.6290625 31.08375 7.7709375 18.4659375 4.3228125 38.6165625-8.7384375 56.844375-13.0734375 18.2146875-44.203125 61.44-50.5171875 70.42875-6.315 8.98875-6.5653125 14.33625 0.9665625 21.856875 7.531875 7.531875 47.8434375 48.3328125 53.43 53.44125 5.585625 5.098125 13.7334375 6.144375 20.8903125 0.9665625 7.168125-5.176875 56.1028125-40.561875 72.8634375-52.4634375 16.75875-11.900625 36.8071875-14.2903125 55.8646875-6.315 19.0584375 7.9865625 11.6615625 5.098125 30.605625 12.6290625s28.261875 21.7209375 32.0634375 45.1809375c3.789375 23.4496875 13.5965625 84.3553125 14.5753125 88.4053125 0.9665625 4.03875 6.315 11.900625 13.3584375 11.900625s74.889375-0.0796875 79.4165625 0c4.5403125 0.0796875 11.71875-3.7434375 12.8803125-10.4446875 1.160625-6.7134375 14.814375-84.5259375 16.9978125-98.1328125 2.1853125-13.5965625 17.7271875-32.506875 29.05875-37.239375 11.3315625-4.7334375 24.290625-9.9553125 35.623125-14.8940625 11.34375-4.9378125 34.2815625-2.173125 41.1309375 2.5940625 6.860625 4.7559375 80.2359375 55.5346875 85.8234375 59.5846875 5.585625 4.05 13.1071875 3.7209375 20.07-3.2428125s49.310625-49.14 54.09-54.07875c4.7671875-4.9378125 5.3015625-9.853125 1.2965625-15.541875-4.01625-5.7-41.77875-58.936875-54.09-76.7540625-12.3-17.8059375-13.34625-38.3784375-6.155625-55.70625 7.201875-17.3165625 4.5403125-10.68375 10.365-24.9290625 5.836875-14.255625 18.523125-33.0290625 38.218125-36.271875 19.695-3.2428125 87.5184375-14.4946875 96.5071875-15.871875 8.98875-1.3771875 12.6290625-8.1703125 12.6290625-15.211875s-0.2390625-71.1684375 0-77.7328125zM525.9059375 561.3703125c-103.546875 0-187.5-83.94375-187.5-187.5s83.953125-187.5 187.5-187.5c103.55625 0 187.5 83.94375 187.5 187.5S629.4621875 561.3703125 525.9059375 561.3703125zM525.9059375 219.18281249999995c-85.425 0-154.6875 69.253125-154.6875 154.6875s69.2625 154.6875 154.6875 154.6875c85.434375 0 154.6875-69.253125 154.6875-154.6875S611.3403125 219.18281249999995 525.9059375 219.18281249999995z"  horiz-adv-x="1024" />

    
    <glyph glyph-name="xin-copy" unicode="&#58947;" d="M555.5384375-66l-25.648125 19.430625c-12.8240625 11.65875-64.704375 53.8228125-110.5603125 90.935625-28.36875 23.1225-55.183125 44.8846875-70.921875 58.291875-38.86125 31.6725-55.183125 45.8559375-76.5571875 64.8984375-147.09 129.9909375-209.8509375 238.2196875-209.8509375 361.6040625 0 162.6346875 102.5934375 265.228125 202.6621875 294.9571875 109.9771875 31.6725 220.7315625-14.7675 288.5446875-121.4409375 68.0071875 106.8684375 178.7615625 153.3075 289.1278125 121.4409375 100.6509375-29.3409375 202.0790625-131.15625 202.0790625-292.625625 0-166.1315625-109.5890625-287.379375-286.60125-429.028125l-29.7290625-24.0946875-88.0209375-70.33875c-28.5628125-23.7046875-47.9934375-38.8621875-64.12125-54.795zM333.835625 772.2384375c-0.0496875 0-0.1096875 0-0.1696875 0-18.710625 0-36.7734375-2.769375-53.8021875-7.92-76.408125-22.5871875-156.463125-104.3896875-156.463125-235.1578125 0-103.9546875 56.5434375-198.38625 189.255-315.9421875 20.985-19.430625 37.695-32.64375 75.001875-63.538125l70.33875-58.291875c35.5575-28.951875 72.088125-58.291875 94.4334375-77.7225 13.2121875 11.65875 28.5628125 24.28875 48.965625 40.80375l87.826875 71.8940625 29.923125 23.8996875c194.3071875 155.445 263.4796875 255.5128125 263.4796875 381.0346875 0 129.6028125-79.276875 210.628125-157.970625 233.1675-84.3290625 24.4828125-166.715625-11.0746875-220.149375-95.015625l-51.29625-81.0253125-51.8803125 81.414375c-42.165 66.4528125-102.5934375 102.399375-167.491875 102.399375z"  horiz-adv-x="1117" />

    
    <glyph glyph-name="mjiantou-copy-copy" unicode="&#59593;" d="M512 129.05154830000004l444.08746666 444.11520001 38.63893334-38.6112-482.72746667-482.72746668-482.72746666 482.72746667 38.63893333 38.61120001z"  horiz-adv-x="1024" />

    
    <glyph glyph-name="mjiantou-copy" unicode="&#58881;" d="M257.0515483 384l444.11520001-444.08746666-38.6112-38.63893334-482.72746668 482.72746667 482.72746667 482.72746666 38.61120001-38.63893333z"  horiz-adv-x="1024" />

    
    <glyph glyph-name="duanxin" unicode="&#59085;" d="M836.033 107.2l6-6 117.8-117.8h-235.6l-206.5-0.2h-5.8c-247.4 0-448 179.5-448 400.8s200.6 400.8 448 400.8 448-179.5 448-400.8c0.1-107.4-47.1-204.9-123.9-276.8z m-182.6 206.1c39.1 0 70.7 31.7 70.7 70.7s-31.7 70.7-70.7 70.7c-39.1 0-70.7-31.7-70.7-70.7s31.7-70.7 70.7-70.7z m-282.9 0c39.1 0 70.7 31.7 70.7 70.7s-31.7 70.7-70.7 70.7-70.7-31.7-70.7-70.7 31.6-70.7 70.7-70.7z"  horiz-adv-x="1024" />

    
    <glyph glyph-name="guanbi1" unicode="&#59175;" d="M512-120C233.6-120 8 105.6 8 384S233.6 888 512 888s504-225.6 504-504-225.6-504-504-504z m0 960C260.8 840 56 635.2 56 384s204.8-456 456-456 456 204.8 456 456S763.2 840 512 840zM548.8 384L744 579.2c9.6 9.6 9.6 25.6 0 36.8l-1.6 1.6c-9.6 9.6-25.6 9.6-35.2 0L512 420.8 316.8 616c-9.6 9.6-25.6 9.6-35.2 0l-1.6-1.6c-9.6-9.6-9.6-25.6 0-36.8L475.2 384 280 188.8c-9.6-9.6-9.6-25.6 0-36.8l1.6-1.6c9.6-9.6 25.6-9.6 35.2 0L512 347.2 707.2 152c9.6-9.6 25.6-9.6 35.2 0l1.6 1.6c9.6 9.6 9.6 25.6 0 36.8L548.8 384z"  horiz-adv-x="1024" />

    
    <glyph glyph-name="lihe" unicode="&#58948;" d="M959.36 624.53333333H762.88c0.42666667 0.21333333 0.96 0.32 1.49333333 0.42666667 59.30666667 18.88 99.41333333 45.86666667 119.25333334 80 17.17333333 29.65333333 17.38666667 63.46666667 0.53333333 92.8-11.52 20.05333333-30.18666667 36.8-54.08 48.53333333-23.36 11.52-50.66666667 17.6-79.04 17.6-41.28 0-81.38666667-12.69333333-119.36-37.65333333-29.12-19.2-56.85333333-45.65333333-82.45333333-78.61333333-15.36-19.73333333-28.16-39.46666667-38.18666667-56.64-10.13333333 17.17333333-22.82666667 36.90666667-38.18666667 56.64-25.6 32.96-53.44 59.52-82.45333333 78.61333333-37.97333333 24.96-78.08 37.65333333-119.46666667 37.65333333-28.37333333 0-55.78666667-6.08-79.04-17.6-23.89333333-11.73333333-42.45333333-28.48-54.08-48.53333333-16.85333333-29.22666667-16.64-63.04 0.53333334-92.8 19.94666667-34.34666667 60.05333333-61.22666667 119.25333333-80 0.42666667-0.21333333 0.96-0.32 1.49333333-0.42666667H61.54666667c-16.53333333 0-29.97333333-13.33333333-29.97333334-29.97333333v-179.52c0-16.53333333 13.33333333-29.97333333 29.97333334-29.97333333h29.97333333v-448.85333334c0-16.53333333 13.33333333-29.97333333 29.97333333-29.97333333h778.13333334c16.53333333 0 29.97333333 13.33333333 29.97333333 29.97333333V84.79999999999995c0 16.53333333-13.33333333 29.97333333-29.97333333 29.97333333-16.53333333 0-29.97333333-13.33333333-29.97333334-29.97333333v-118.72H151.36V385.06666667h156.58666667c16.53333333 0 29.97333333 13.33333333 29.97333333 29.97333333 0 16.53333333-13.33333333 29.97333333-29.97333333 29.97333333H91.52V564.69333333h837.97333333v-119.68H563.94666667c-16.53333333 0-29.97333333-13.33333333-29.97333334-29.97333333 0-16.53333333 13.33333333-29.97333333 29.97333334-29.97333333h305.6v-125.44c0-16.53333333 13.33333333-29.97333333 29.97333333-29.97333334 16.53333333 0 29.97333333 13.33333333 29.97333333 29.97333334V385.06666667h29.97333334c16.53333333 0 29.97333333 13.33333333 29.97333333 29.97333333V594.56c-0.10666667 16.64-13.44 29.97333333-30.08 29.97333333z m-362.77333333 86.4c48.21333333 61.86666667 100.16 93.12 154.56 93.12 41.70666667 0 70.93333333-18.13333333 81.17333333-36.16 6.29333333-10.88 6.08-21.65333333-0.42666667-32.85333333-6.82666667-11.73333333-27.09333333-34.45333333-85.65333333-53.12-48.32-15.46666667-111.04-24.42666667-186.66666667-26.88 9.38666667 16.64 21.76 36.26666667 37.01333334 55.89333333z m-406.18666667 24.10666667c-6.50666667 11.30666667-6.72 22.08-0.42666667 32.85333333 10.34666667 18.02666667 39.46666667 36.16 81.17333334 36.16 92.90666667 0 159.57333333-92.8 191.46666666-149.01333333-75.52 2.45333333-138.24 11.52-186.56 26.88-58.56 18.77333333-78.82666667 41.38666667-85.65333333 53.12z m0 0M407.04 445.01333333c-16.53333333 0-29.97333333-13.33333333-29.97333333-29.97333333 0-16.53333333 13.33333333-29.97333333 29.97333333-29.97333333h43.73333333c16.53333333 0 29.97333333 13.33333333 29.97333334 29.97333333 0 16.53333333-13.33333333 29.97333333-29.97333334 29.97333333h-43.73333333z m462.61333333-270.4c0-16.53333333 13.44-29.97333333 29.97333334-29.97333333 16.53333333 0 29.97333333 13.44 29.97333333 29.97333333 0 16.53333333-13.44 29.97333333-29.97333333 29.97333334-16.64-0.10666667-29.97333333-13.44-29.97333334-29.97333334z m0 0"  horiz-adv-x="1024" />

    
    <glyph glyph-name="xiaoxi1" unicode="&#58887;" d="M375.46666667 497.77777813m34.13333333 0l0 0q34.13333333 0 34.13333333-34.13333333l0-68.26666667q0-34.13333333-34.13333333-34.13333333l0 0q-34.13333333 0-34.13333333 34.13333333l0 68.26666667q0 34.13333333 34.13333333 34.13333333ZM603.02222187 497.77777813m34.13333333 0l0 0q34.13333333 0 34.13333333-34.13333333l0-68.26666667q0-34.13333333-34.13333333-34.13333333l0 0q-34.13333333 0-34.13333333 34.13333333l0 68.26666667q0 34.13333333 34.13333333 34.13333333ZM873.17617813 37.27359999999999A498.61973333 498.61973333 0 0 1 1012.62222187 384c0 276.02488853-224.55182187 500.62222187-500.5767104 500.62222187C235.9296 884.736 11.37777813 660.13866667 11.37777813 384c0-276.02488853 224.55182187-500.62222187 500.5767104-500.62222187h364.68053334c17.77208853 0 33.88302187 10.28551147 41.3696 26.28266667a45.62488853 45.62488853 0 0 1-6.144 48.65137707m-103.69706667-1.6839104H512C276.36622187-43.349333330000036 84.65066667 148.36622187 84.65066667 384 84.65066667 619.63377813 276.36622187 811.34933333 512 811.34933333S939.34933333 619.63377813 939.34933333 384a425.30133333 425.30133333 0 0 0-119.03431146-295.936c-34.2243552-35.49866667-31.42542187-84.5824-12.15146667-131.43608853z"  horiz-adv-x="1024" />

    
    <glyph glyph-name="bianji" unicode="&#59062;" d="M899.75466667 711.6800000000001c27.30666667 27.30666667 27.30666667 76.45866667 0 109.22666667l-38.22933334 38.22933333c-27.30666667 27.30666667-76.45866667 27.30666667-109.22666666 0l-54.61333334-54.61333333L845.14133333 657.06666667l54.61333334 54.61333333z m-87.38133334-103.76533333L653.99466667 766.29333333l-447.82933334-442.368L364.544 165.54666667000004l447.82933333 442.368zM178.85866667 274.77333333l-70.99733334-218.45333333 218.45333334 70.99733333L178.85866667 274.77333333z m688.128-273.06666666h-709.97333334c-32.768 0-54.61333333-21.84533333-54.61333333-54.61333334s21.84533333-54.61333333 54.61333333-54.61333333h709.97333334c32.768 0 54.61333333 21.84533333 54.61333333 54.61333333 0 27.30666667-21.84533333 54.61333333-54.61333333 54.61333334z"  horiz-adv-x="1024" />

    
    <glyph glyph-name="09" unicode="&#58886;" d="M804.141176 856.847059H39.152941v-963.764706h963.764706V694.211765l-198.776471 162.635294z m-493.929411-60.235294h391.529411v-180.705883h-391.529411v180.705883z m481.882353-843.294118h-542.117647v331.294118h542.117647v-331.294118z m150.588235 0h-90.352941v391.529412h-662.588236v-391.529412h-90.352941v843.294118h150.588236v-240.941177h512v240.941177h18.070588l162.635294-129.505883v-713.788235zM310.211765 224.37647100000004h331.294117v-60.235295h-331.294117zM310.211765 103.90588200000002h210.823529v-60.235294h-210.823529zM611.388235 766.494118h60.235294v-120.470589h-60.235294z"  horiz-adv-x="1024" />

    
    <glyph glyph-name="dui" unicode="&#58883;" d="M0 349.3888l56.5248 79.872 265.8304-203.776L969.5232 752.64 1024 700.416 326.8608 15.36 0 349.3888z"  horiz-adv-x="1024" />

    
    <glyph glyph-name="cuo1" unicode="&#58949;" d="M775.79583084 302.47515781000004l-149.79361249 151.11921967 133.8863262 107.3741824c159.07286282 127.25829025 164.37529157 151.78202327 153.77043406 174.9801491-7.29083955 15.90728628-23.86092942 21.20971504-50.37307322 16.57008987-40.4310193-7.95364315-184.25939943-96.10652128-261.80742006-155.75884483-33.14017975-25.84934021-60.97793075-43.08223369-72.90839546-48.38466245-20.54691145 10.60485751-87.49007455 51.69868042-174.3173455 109.3625932-176.96855988 118.64184352-193.53864976 118.64184352-200.1666857 118.6418435-17.89569707 0-39.10541211-13.9188755-51.03587682-27.17494738-7.95364315-9.94205392-16.57008987-21.87251863-15.24448268-36.45419774s11.93046471-24.52373301 22.53532222-32.47737616c102.73455724-79.53643141 247.22574096-202.81790009 286.99395666-240.59770501-19.22130427-23.19812583-69.59437748-77.54802062-151.11921967-159.07286281l-184.25939943-182.93379224 74.23400265-58.32671636c60.31512715-47.05905525 66.2803595-47.05905525 74.23400265-47.05905525 12.5932683 0 18.55850066 0 80.199235 90.14128893 29.16335819 43.08223369 96.10652128 124.60707587 145.15398732 178.29416707 24.52373301 25.84934021 62.96634153 66.9431631 78.87362781 78.21082422 52.361484-64.95475232 117.97903991-144.49118373 176.30575629-214.08556121 102.07175363-121.2930579 102.73455724-121.2930579 116.65343272-121.29305789 5.96523235 0 15.24448269 0 78.21082423 49.71026962l76.22241343 60.97793074-186.24781021 188.23622101z"  horiz-adv-x="1024" />

    
    <glyph glyph-name="piliangdaoru1" unicode="&#58885;" d="M964.1984 700.39324445H827.5437037V837.04794075c0 24.51531852-19.90352592 44.41884445-44.41884445 44.41884443H477.77564445c-24.51531852 0-44.41884445-19.90352592-44.41884445-44.41884443s19.90352592-44.41884445 44.41884445-44.41884445h260.93037037v-635.45647408H103.24954075v260.93037037c0 24.51531852-19.90352592 44.41884445-44.41884445 44.41884444-24.51531852 0-44.41884445-19.90352592-44.41884445-44.41884444v-305.34921481c0-24.51531852 19.90352592-44.41884445 44.41884445-44.41884445h136.65469629v-136.77605925c0-24.51531852 19.90352592-44.41884445 44.41884444-44.41884445h724.29416297c24.51531852 0 44.41884445 19.90352592 44.41884445 44.41884445V655.85303703c0 24.51531852-19.90352592 44.41884445-44.41884445 44.54020742z m-44.54020741-88.8376889v-635.6992H284.08035555v92.35721482h498.92314075c24.51531852 0 44.41884445 19.90352592 44.41884445 44.41884445V611.55555555H919.77955555h-0.12136296zM348.40272592 506.2125037h54.85605926l-19.41807407-19.41807407c-17.3549037-17.3549037-17.3549037-45.51111111 0-62.86601481 17.3549037-17.3549037 45.51111111-17.3549037 62.86601481 0l95.14856297 95.26992593c17.23354075 17.3549037 17.23354075 45.38974815 0 62.74465184l-95.14856297 95.26992593c-17.3549037 17.3549037-45.51111111 17.3549037-62.86601481 0s-17.3549037-45.51111111 0-62.86601482l19.41807407-19.41807407h-54.85605926c-132.28562963 0.12136297-239.57048889 107.40622222-239.69185184 239.69185185 0 24.51531852-19.90352592 44.41884445-44.41884445 44.41884444-24.51531852 0-44.41884445-19.90352592-44.41884445-44.41884444 0.24272592-181.31626667 147.21327408-328.28681482 328.52954074-328.52954073v0.12136295z"  horiz-adv-x="1024" />

    
    <glyph glyph-name="sousuo" unicode="&#58891;" d="M985.8698331-125.14739085999997c-17.80789248 5.87270371-29.45200811 20.1655899-42.80414321 31.91682048-80.03014883 70.4188928-159.79600327 141.13933881-239.66315066 211.74219093-2.55213454 2.25523939-5.22884893 4.36727125-8.08137158 6.74010454-3.81190144-2.71979293-7.25821554-5.14967666-10.67542187-7.62264008-58.33583957-42.26856733-122.97750073-68.68642247-194.49199616-78.5701228C270.95308402 8.761676230000035 62.75850013 153.67100301999994 15.29368462 370.48253439999996c-5.12057003 23.38486613-6.59573191 47.56610958-9.80569315 71.3724507-0.48900437 3.63842219-1.21552441 7.24540757-1.83260046 10.86520093 0 7.4293669 0 14.85756871 0 22.28810069 0.56468366 2.55795655 1.38318279 5.09262621 1.65213411 7.6831835 1.91177273 18.39819093 2.41358393 37.04321138 5.75627491 55.17012082 19.93506019 108.12225991 73.00828501 196.71696384 159.54218667 264.58954411 64.00246329 50.19625245 136.81398329 79.50505187 217.91644786 87.74127502 10.74527915 1.09210851 21.47775033 2.32276878 32.21720861 3.48822756 8.48887467 0 16.97891442 0 25.47011811 0 10.20853931-1.15032405 20.40543459-2.40543403 30.62561678-3.43816306 85.75149511-8.66002717 161.92666283-40.66882674 228.11683727-95.52575147 80.38991645-66.61747029 131.60492715-151.57724387 149.25098325-254.42641237 23.79004131-138.69082624-12.86196793-261.1606949-106.4468389-366.42926706-1.58344078-1.77787904-3.13311801-3.58835769-4.64553757-5.430272-0.31785301-0.38654635-0.39935317-0.96869376-0.87089265-2.20750393 10.25976775-9.12923762 20.70116579-18.47736206 31.21009323-27.75679431 77.94373177-68.83428807 155.86999979-137.68720384 233.89872582-206.42834887 9.44941853-8.32354531 14.92975502-18.13971741 12.36364971-30.77930439-2.7232859-13.42082958-11.08525283-21.9504549-24.79366257-24.80064854-0.96170781-0.20375211-1.78952192-1.05717987-2.68020736-1.60789162C990.11718144-125.14739085999997 987.99234275-125.14739085999997 985.8698331-125.14739085999997zM66.63443911 463.70065408c-1.41112547-200.70350962 164.76404963-366.83560619 366.30701625-366.91827143 194.45939541-0.08033621 366.4956325 156.92834475 366.64582599 366.89032874 0.15252253 210.73274766-173.14813838 368.36781853-368.61232014 367.31995364C231.5451904 829.9226760500001 65.05798315 665.01541774 66.63443911 463.70065408z"  horiz-adv-x="1024" />

    
    <glyph glyph-name="fanhuidingbu" unicode="&#58944;" d="M987.403636 857.250909H36.596364C16.465455 857.250909 0 842.88 0 825.250909s16.465455-32 36.596364-32h950.807272c20.130909 0 36.596364 14.429091 36.596364 32s-16.465455 32-36.596364 32zM534.283636 740.770909a33.512727 33.512727 0 0 1-46.545454 0L64.290909 316.974545a32 32 0 0 1 45.265455-45.207272L480 642.210909v-722.734545a32 32 0 0 1 64 0V640.523636l368.756364-368.756363a32 32 0 0 1 45.265454 45.207272z"  horiz-adv-x="1024" />

    
    <glyph glyph-name="cha" unicode="&#58895;" d="M974.35915813 804.34147219L552.54898813 382.38443156000005l410.13401812-412.924545a36.71745938 36.71745938 0 0 0 7.34349187-49.78887469 35.90967469 35.90967469 0 0 0-49.42169999 7.34349188L510.32390937 340.08591844l-418.57903406-418.57903406a31.50358031 31.50358031 0 1 0-42.66568781 42.66568781l418.579035 418.57903406L48.56514311 804.7086468699999a36.71745938 36.71745938 0 0 0-7.34349186 49.78887469 35.90967469 35.90967469 0 0 0 49.4217-7.34349187l419.01964406-421.95704063L931.32629657 847.00716a31.50358031 31.50358031 0 1 0 42.66568688-42.66568781z"  horiz-adv-x="1028" />

    
    <glyph glyph-name="fuxuankuang_xuanzhong1" unicode="&#59074;" d="M512 896C229.2 896 0 666.8 0 384s229.2-512 512-512 512 229.2 512 512S794.8 896 512 896z m275.1-371.2L460.4 198.10000000000002l-0.1-0.1c-12.4-12.4-32.7-12.4-45.1 0l-0.1 0.1-178.2 178.2c-12.4 12.4-12.4 32.7 0 45.1l0.1 0.1c12.4 12.4 32.7 12.4 45.1 0l155.6-155.6L741.9 570c12.4 12.4 32.7 12.4 45.1 0l0.1-0.1c12.4-12.4 12.4-32.7 0-45.1z"  horiz-adv-x="1024" />

    
    <glyph glyph-name="fuxuankuang_weixuanzhong1" unicode="&#59075;" d="M512 832c60.5 0 119.2-11.8 174.4-35.2 53.3-22.6 101.3-54.9 142.4-96 41.2-41.2 73.5-89.1 96-142.4C948.2 503.2 960 444.5 960 384s-11.8-119.2-35.2-174.4c-22.6-53.3-54.9-101.3-96-142.4-41.2-41.2-89.1-73.5-142.4-96C631.2-52.2 572.5-64 512-64s-119.2 11.8-174.4 35.2c-53.3 22.6-101.3 54.9-142.4 96-41.2 41.2-73.5 89.1-96 142.4C75.8 264.8 64 323.5 64 384s11.8 119.2 35.2 174.4c22.6 53.3 54.9 101.3 96 142.4s89.1 73.5 142.4 96C392.8 820.2 451.5 832 512 832m0 64C229.2 896 0 666.8 0 384s229.2-512 512-512 512 229.2 512 512S794.8 896 512 896z"  horiz-adv-x="1024" />

    
    <glyph glyph-name="changyongtubiao-xianxingdaochu-zhuanqu-" unicode="&#59211;" d="M764.77672107 409.78720237L311.97830258 862.46134518a37.28270222 37.28270222 0 1 1-52.75502365-52.75502363l426.76266477-426.26556208-426.76266477-426.45197559a37.28270222 37.28270222 0 1 1 52.75502365-52.6928858l452.79841849 452.79841849a37.28270222 37.28270222 0 0 1 0 52.6928858z"  horiz-adv-x="1024" />

    
    <glyph glyph-name="fuxuankuang_xuanzhong" unicode="&#59081;" d="M904 832c14.8 0 28.9-5.9 39.5-16.5C954.1 804.9 960 790.8 960 776v-784c0-14.8-5.9-28.9-16.5-39.5-10.6-10.6-24.7-16.5-39.5-16.5H120c-14.8 0-28.9 5.9-39.5 16.5C69.9-36.89999999999998 64-22.799999999999955 64-8V776c0 14.8 5.9 28.9 16.5 39.5C91.1 826.1 105.2 832 120 832h784m0 64H120C54 896 0 842 0 776v-784c0-66 54-120 120-120h784c66 0 120 54 120 120V776c0 66-54 120-120 120zM415.2 198L236.9 376.29999999999995c-12.4 12.4-12.4 32.7 0 45.1l0.1 0.1c12.4 12.4 32.7 12.4 45.1 0l178.3-178.3c12.4-12.4 12.4-32.7 0-45.1l-0.1-0.1c-12.4-12.4-32.7-12.4-45.1 0zM787.1 524.8L460.3 198c-12.4-12.4-32.7-12.4-45.1 0l-0.1 0.1c-12.4 12.4-12.4 32.7 0 45.1L741.9 570c12.4 12.4 32.7 12.4 45.1 0l0.1-0.1c12.4-12.4 12.4-32.7 0-45.1z"  horiz-adv-x="1024" />

    
    <glyph glyph-name="fuxuankuang_weixuanzhong" unicode="&#59080;" d="M904 832c14.8 0 28.9-5.9 39.5-16.5C954.1 804.9 960 790.8 960 776v-784c0-14.8-5.9-28.9-16.5-39.5-10.6-10.6-24.7-16.5-39.5-16.5H120c-14.8 0-28.9 5.9-39.5 16.5C69.9-36.9 64-22.8 64-8V776c0 14.8 5.9 28.9 16.5 39.5C91.1 826.1 105.2 832 120 832h784m0 64H120C54 896 0 842 0 776v-784c0-66 54-120 120-120h784c66 0 120 54 120 120V776c0 66-54 120-120 120z"  horiz-adv-x="1024" />

    
    <glyph glyph-name="shoucang" unicode="&#58892;" d="M501.44-37.91999999999996a20.22 20.22 0 0 0-14.4 6l-336.9 342C73.94 386.22 32 476.88 32 565.3199999999999 32 708.12 126.8 804 267.98 804c121.38 0 169.44-53.94 233.46-129.18C565.46 750.06 613.58 804 734.9 804c141.18 0 236.04-95.94 236.04-238.68 0-88.44-42-179.1-118.2-255.36L515.9-31.799999999999955a20.28 20.28 0 0 0-14.4-6.06"  horiz-adv-x="1024" />

    
    <glyph glyph-name="shoucang2" unicode="&#59022;" d="M842.07619035 150.69313453999996h-246.56293737c-18.55850066 0-33.80298335 15.24448269-33.80298335 33.80298335s15.24448269 33.80298335 33.80298335 33.80298335h246.56293737c18.55850066 0 33.80298335-15.24448269 33.80298334-33.80298335s-15.24448269-33.80298335-33.80298334-33.80298335zM684.99173831 61.21464920999995v246.56293736c0 18.55850066 15.24448269 33.80298335 33.80298334 33.80298335s33.80298335-15.24448269 33.80298336-33.80298335v-246.56293736c0-18.55850066-15.24448269-33.80298335-33.80298336-33.80298334s-33.80298335 15.24448269-33.80298334 33.80298334zM508.02317843-60.74121229000002c-8.61644674 0-16.57008987 3.31401797-23.19812582 9.27925034l-387.07729952 387.07729952c-55.67550198 55.67550198-86.82727095 130.57230823-86.82727096 209.44593603s31.15176897 153.77043405 86.82727096 209.44593603c55.0126984 55.0126984 133.88632621 75.55960983 221.37640074 58.32671638 74.89680624-14.58167909 151.11921968-56.33830558 208.78313245-114.00221836 12.5932683-12.5932683 12.5932683-33.80298335 0-46.39625165-12.5932683-12.5932683-33.80298335-12.5932683-46.39625165 0C386.73012053 747.2163701 230.9712757 795.60103253 144.14400475 708.77376158c-43.74503728-43.74503728-67.6059667-101.40895005-67.6059667-163.04968439s23.86092942-119.9674507 67.6059667-163.04968439l387.07729952-387.0772995c12.5932683-12.5932683 12.5932683-33.80298335 0-46.39625167-6.62803595-7.29083955-14.58167909-9.94205392-23.19812584-9.94205392zM901.0657103 326.33608723c-8.61644674 0-16.57008987 3.31401797-23.19812582 9.27925034-12.5932683 12.5932683-12.5932683 33.80298335 0 46.39625165 43.74503728 43.74503728 67.6059667 101.40895005 67.60596669 163.04968438s-23.86092942 119.9674507-67.60596669 163.04968438c-53.6870912 53.6870912-127.92109385 49.71026963-167.68930955 43.08223368-64.95475232-11.26766112-131.89791541-46.39625165-178.95697066-93.45530689-12.5932683-12.5932683-33.80298335-12.5932683-46.39625166 0-12.5932683 12.5932683-12.5932683 33.80298335 0 46.39625165 57.00110917 57.00110917 135.21193339 98.09493207 214.0855612 111.35100396 90.14128893 15.90728628 170.34052393-5.96523235 225.35322232-60.97793075 55.67550198-55.67550198 86.82727095-130.57230823 86.82727095-209.44593603 0-78.87362782-30.48896537-153.77043405-86.82727095-209.44593603-6.62803595-5.96523235-15.24448269-9.27925033-23.19812583-9.27925034z"  horiz-adv-x="1024" />

    
    <glyph glyph-name="gantanhao" unicode="&#58894;" d="M885.19111147 1.7066666700000042H138.80888853c-40.96 0-75.09333333 20.48-95.57333333 54.61333333s-20.48 77.36888853 0 111.50222187L416.42666667 816.3555552c20.48 34.13333333 56.88888853 54.61333333 95.57333333 54.61333333 40.96 0 75.09333333-20.48 95.57333333-54.61333333l373.19111147-646.25777707c20.48-34.13333333 20.48-77.36888853 0-111.50222293-20.48-36.40888853-54.61333333-56.88888853-95.57333333-56.88888853zM102.4 135.96444480000002c-11.37777813-20.48-4.55111147-36.40888853 0-43.23555627s15.92888853-20.48 36.40888853-20.48h746.38222294c22.7555552 0 34.13333333 15.92888853 36.40888853 20.48 4.55111147 6.82666667 11.37777813 22.7555552 0 43.23555627L548.40888853 782.22222187c-11.37777813 20.48-29.58222187 20.48-36.40888853 20.48-6.82666667 0-25.03111147-2.2755552-36.40888853-20.48L102.4 135.96444480000002zM512 270.22222187c-18.2044448 0-34.13333333 15.92888853-34.13333333 34.13333333v250.31111147c0 18.2044448 15.92888853 34.13333333 34.13333333 34.13333333s34.13333333-15.92888853 34.13333333-34.13333333v-250.31111147c0-18.2044448-15.92888853-34.13333333-34.13333333-34.13333333zM512 156.44444480000004c-18.2044448 0-34.13333333 15.92888853-34.13333333 34.13333333S493.7955552 224.71111147 512 224.71111147s34.13333333-15.92888853 34.13333333-34.13333334S530.2044448 156.44444480000004 512 156.44444480000004z"  horiz-adv-x="1024" />

    
    <glyph glyph-name="gouwuche" unicode="&#58899;" d="M322.64087147 99.96294507000005c-52.31032107 0-94.205296-42.36869653-94.205296-94.67901867 0-52.31032107 41.89606613-94.67901867 94.205296-94.67901867s94.67901867 42.36869653 94.67901866 94.67901867C417.32098133 57.59315627000001 374.9511936 99.96294507000005 322.64087147 99.96294507000005zM38.60381653 857.39618347l0-94.67901867 94.67901867 0L303.46929813 403.6463872l-63.9088832-115.98234347c-7.3372416-13.72813013-11.59856213-29.11428907-11.59856213-45.68257173 0-52.31032107 42.36869653-94.67901867 94.67901867-94.67901867l568.07520106 0 0 94.67901867L342.7609824 241.98147307c-6.62774933 0-11.83542293 5.2076736-11.83542293 11.83542293 0 2.13066027 0.47372267 4.02336747 1.42007573 5.680304l42.36869653 77.16329067 352.67988907 0c35.5051776 0 66.51217387 19.6463872 82.84468693 48.75958506l169.2390176 307.23417814c3.78759787 6.62774933 5.91716587 14.4387136 5.91716587 22.72340053 0 26.27304533-21.3033248 47.33950933-47.33950933 47.33950933L238.1403392 762.7171648l-44.97307947 94.67901867C193.16725973 857.39618347 38.60381653 857.39618347 38.60381653 857.39618347zM796.03705493 99.96294507000005c-52.31032107 0-94.205296-42.36869653-94.205296-94.67901867 0-52.31032107 41.89606613-94.67901867 94.205296-94.67901867 52.31032107 0 94.67901867 42.36869653 94.67901867 94.67901867C890.7160736 57.59315627000001 848.347376 99.96294507000005 796.03705493 99.96294507000005z"  horiz-adv-x="1024" />

    
    <glyph glyph-name="yonghu" unicode="&#59592;" d="M497.43644445 849.06287408c-115.53754075-6.79632592-210.6861037-100.97398518-218.45333334-216.51152593-8.73813333-135.92651852 98.06127408-249.52225185 232.04598519-249.52225185 129.13019259 0 233.01688889 104.8576 233.01688888 233.01688888 0.9709037 133.98471111-111.65392592 240.78411852-246.60954073 233.0168889zM512 307.29860741000005c-155.34459259 0-465.06287408-77.6722963-465.06287408-233.01688889v-116.50844444c0-21.35988148 17.47626667-38.83614815 38.83614816-38.83614816h852.45345184c21.35988148 0 38.83614815 17.47626667 38.83614816 38.83614816V75.25262222000003c0 154.37368889-309.71828148 232.04598518-465.06287408 232.04598519z"  horiz-adv-x="1024" />

    
    <glyph glyph-name="mima" unicode="&#59058;" d="M796.78547437 552.27702992h-48.0791514V648.47416889A240.51226548 240.51226548 0 0 1 508.31056592 888.86992592a240.51226548 240.51226548 0 0 1-240.39575703-240.39575703v-96.19713897H219.75798518A96.43015585 96.43015585 0 0 1 123.63851852 456.11872711v-480.79151408A96.43015585 96.43015585 0 0 1 219.79682133-120.86992592000001h576.98865304a96.43015585 96.43015585 0 0 1 96.19713896 96.15830281V456.11872711a96.43015585 96.43015585 0 0 1-96.19713896 96.15830281zM508.31056592 119.52583111000001a96.43015585 96.43015585 0 0 0-96.15830281 96.19713897 96.43015585 96.43015585 0 0 0 96.15830281 96.15830281 96.43015585 96.43015585 0 0 0 96.15830283-96.15830281 96.43015585 96.43015585 0 0 0-96.15830283-96.19713897z m149.0531366 432.75119881h-298.10627319V648.47416889a149.16964503 149.16964503 0 0 0 149.05313659 149.05313659 149.16964503 149.16964503 0 0 0 149.0531366-149.05313659v-96.19713897z"  horiz-adv-x="1024" />

    


  </font>
</defs>
</svg>
