<?xml version="1.0" encoding="UTF-8"?>
<!DOCTYPE svg PUBLIC "-//W3C//DTD SVG 1.1//EN" "http://www.w3.org/Graphics/SVG/1.1/DTD/svg11.dtd">
<!-- Creator: CorelDRAW X7 -->
<svg xmlns="http://www.w3.org/2000/svg" xml:space="preserve" width="12.597mm" height="12.597mm" version="1.1" style="shape-rendering:geometricPrecision; text-rendering:geometricPrecision; image-rendering:optimizeQuality; fill-rule:evenodd; clip-rule:evenodd"
viewBox="0 0 102 102"
 xmlns:xlink="http://www.w3.org/1999/xlink">
 <defs>
  <style type="text/css">
   <![CDATA[
    .fil0 {fill:gray;fill-rule:nonzero}
   ]]>
  </style>
 </defs>
 <g id="图层_x0020_1">
  <metadata id="CorelCorpID_0Corel-Layer"/>
  <g id="_1767401840">
   <path class="fil0" d="M59 79c-5,0 -9,-4 -9,-10 0,-5 4,-9 9,-9 6,0 10,4 10,9 0,6 -4,10 -10,10zm0 -16c-2,0 -5,1 -6,4 -1,2 -1,5 1,7 2,2 5,3 8,2 3,-1 4,-4 4,-7 0,-3 -3,-6 -7,-6z"/>
   <path class="fil0" d="M61 62c0,0 0,0 0,0 -1,0 -1,0 -1,-1 0,0 0,0 0,-1l9 -27 10 -3c1,0 2,0 2,1 0,1 0,1 -1,2l-9 2 -9 26c0,1 0,1 -1,1zm-10 8c0,0 0,0 -1,0l-28 -11c0,0 0,0 0,0 -1,-1 -1,-1 0,-1 0,-1 1,-2 1,-1l28 10c1,0 2,1 1,2 0,1 0,1 -1,1zm-3 -8c0,0 0,0 0,0l-22 -9c-1,0 -1,-1 -1,-2l9 -27c1,0 1,-1 1,-1 1,0 1,0 1,0l11 4c1,0 1,1 1,2l-2 5 2 1 3 -6c0,0 1,-1 1,0l10 3c1,0 2,1 1,2l-7 23c0,0 -1,0 -1,1l-6 4c0,0 0,0 -1,0zm-19 -11l19 8 5 -4 7 -21 -7 -2 -2 5c-1,1 -2,2 -2,1l-5 -1c0,0 -1,-1 -1,-1 0,0 0,-1 0,-1l2 -6 -8 -3 -8 25z"/>
  </g>
  <path class="fil0" d="M51 0c14,0 27,6 36,15 10,9 15,22 15,36 0,14 -5,27 -15,36 -9,10 -22,15 -36,15 -14,0 -27,-5 -36,-15 -9,-9 -15,-22 -15,-36 0,-14 6,-27 15,-36 9,-9 22,-15 36,-15zm34 17c-9,-8 -21,-14 -34,-14 -13,0 -25,6 -34,14 -8,9 -14,21 -14,34 0,13 6,25 14,34 9,9 21,14 34,14 13,0 25,-5 34,-14 9,-9 14,-21 14,-34 0,-13 -5,-25 -14,-34z"/>
 </g>
</svg>
