<?xml version="1.0" encoding="UTF-8"?>
<!DOCTYPE svg PUBLIC "-//W3C//DTD SVG 1.1//EN" "http://www.w3.org/Graphics/SVG/1.1/DTD/svg11.dtd">
<!-- Creator: CorelDRAW X7 -->
<svg xmlns="http://www.w3.org/2000/svg" xml:space="preserve" width="12.597mm" height="12.597mm" version="1.1" style="shape-rendering:geometricPrecision; text-rendering:geometricPrecision; image-rendering:optimizeQuality; fill-rule:evenodd; clip-rule:evenodd"
viewBox="0 0 102 102"
 xmlns:xlink="http://www.w3.org/1999/xlink">
 <defs>
  <style type="text/css">
   <![CDATA[
    .fil0 {fill:gray;fill-rule:nonzero}
   ]]>
  </style>
 </defs>
 <g id="图层_x0020_1">
  <metadata id="CorelCorpID_0Corel-Layer"/>
  <path class="fil0" d="M51 0c14,0 27,6 36,15 10,9 15,22 15,36 0,14 -5,27 -15,36 -9,10 -22,15 -36,15 -14,0 -27,-5 -36,-15 -9,-9 -15,-22 -15,-36 0,-14 6,-27 15,-36 9,-9 22,-15 36,-15zm34 17c-9,-8 -21,-14 -34,-14 -13,0 -25,6 -34,14 -8,9 -14,21 -14,34 0,13 6,25 14,34 9,9 21,14 34,14 13,0 25,-5 34,-14 9,-9 14,-21 14,-34 0,-13 -5,-25 -14,-34z"/>
  <g id="_1346315184">
   <path class="fil0" d="M49 80l-27 0 0 -27 27 0 0 27zm-24 -3l21 0 0 -21 -21 0 0 21z"/>
   <path class="fil0" d="M29 59l10 0 0 4 -10 0 0 -4zm51 21l-27 0 0 -27 27 0 0 27zm-24 -3l21 0 0 -21 -21 0 0 21z"/>
   <path class="fil0" d="M60 59l10 0 0 4 -10 0 0 -4zm5 -10l-28 0 0 -27 28 0 0 27zm-24 -3l20 0 0 -21 -20 0 0 21z"/>
   <polygon class="fil0" points="44,32 54,32 54,29 44,29 "/>
  </g>
 </g>
</svg>
