<?xml version="1.0" encoding="UTF-8"?>
<!DOCTYPE svg PUBLIC "-//W3C//DTD SVG 1.1//EN" "http://www.w3.org/Graphics/SVG/1.1/DTD/svg11.dtd">
<!-- Creator: CorelDRAW X7 -->
<svg xmlns="http://www.w3.org/2000/svg" xml:space="preserve" width="12.597mm" height="12.597mm" version="1.1" style="shape-rendering:geometricPrecision; text-rendering:geometricPrecision; image-rendering:optimizeQuality; fill-rule:evenodd; clip-rule:evenodd"
viewBox="0 0 102 102"
 xmlns:xlink="http://www.w3.org/1999/xlink">
 <defs>
  <style type="text/css">
   <![CDATA[
    .fil0 {fill:gray;fill-rule:nonzero}
   ]]>
  </style>
 </defs>
 <g id="图层_x0020_1">
  <metadata id="CorelCorpID_0Corel-Layer"/>
  <path class="fil0" d="M86 72l-6 0c-1,3 -4,5 -8,5 -3,0 -6,-2 -8,-5l-15 0c-1,3 -4,5 -8,5 -4,0 -7,-2 -8,-6l-11 0 0 -3 0 -1 0 -2c0,-1 1,-2 2,-2 1,0 2,1 2,2l0 2 7 0c1,-4 4,-6 8,-6 4,0 8,2 8,6l11 0 0 -25 0 -2 0 -11 -32 0 0 5 13 0c1,0 2,1 2,2 0,1 -1,2 -2,2l-22 0c-2,0 -3,-1 -3,-2 0,-1 1,-2 3,-2l4 0 0 -9 41 0 0 13 10 0 12 13 0 21zm-18 -22l0 5 9 0 -4 -5 -5 0zm13 17l1 0 0 -14 -10 -11 -8 0 0 24c2,-3 5,-5 8,-5 4,0 8,2 9,6zm-9 -2c-2,0 -4,2 -4,4 0,2 2,4 4,4 3,0 5,-2 5,-4 0,-2 -2,-4 -5,-4zm-31 0c-2,0 -4,2 -4,4 0,2 2,4 4,4 3,0 4,-2 4,-4 0,-2 -1,-4 -4,-4zm2 -19c0,2 -1,3 -2,3l-22 0c-2,0 -3,-1 -3,-3 0,-1 1,-2 3,-2l22 0c1,0 2,1 2,2zm5 11c0,1 -2,2 -3,2l-26 0c-2,0 -3,-1 -3,-2 0,-2 1,-3 3,-3l26 0c1,0 3,1 3,3z"/>
  <path class="fil0" d="M51 0c14,0 27,6 36,15 10,9 15,22 15,36 0,14 -5,27 -15,36 -9,10 -22,15 -36,15 -14,0 -27,-5 -36,-15 -9,-9 -15,-22 -15,-36 0,-14 6,-27 15,-36 9,-9 22,-15 36,-15zm34 17c-9,-8 -21,-14 -34,-14 -13,0 -25,6 -34,14 -8,9 -14,21 -14,34 0,13 6,25 14,34 9,9 21,14 34,14 13,0 25,-5 34,-14 9,-9 14,-21 14,-34 0,-13 -5,-25 -14,-34z"/>
 </g>
</svg>
